<svg width="200" height="200" viewBox="0 0 200 200" fill="none" xmlns="http://www.w3.org/2000/svg">
<path d="M33.3333 200C14.9238 200 0 184.941 0 166.364L0 33.6368C0 15.06 14.9238 0.000488281 33.3333 0.000488281C51.7428 0.000488281 66.6667 15.06 66.6667 33.6368L66.6667 166.364C66.6667 184.941 51.7428 200 33.3333 200Z" fill="black"/>
<path d="M100 200C81.5905 200 66.6667 184.941 66.6667 166.364L66.6667 33.6368C66.6667 15.06 81.5905 0.000488281 100 0.000488281C118.409 0.000488281 133.333 15.06 133.333 33.6368V166.364C133.333 184.941 118.409 200 100 200Z" fill="black"/>
<path d="M166.667 200C148.257 200 133.333 184.941 133.333 166.364V33.6368C133.333 15.06 148.257 0.000488281 166.667 0.000488281C185.076 0.000488281 200 15.06 200 33.6368V166.364C200 184.941 185.076 200 166.667 200Z" fill="black"/>
</svg>
